<?xml version="1.0" encoding="utf-8"?>
<!-- Generator: Adobe Illustrator 17.0.0, SVG Export Plug-In . SVG Version: 6.00 Build 0)  -->
<!DOCTYPE svg PUBLIC "-//W3C//DTD SVG 1.1//EN" "http://www.w3.org/Graphics/SVG/1.1/DTD/svg11.dtd">
<svg version="1.1" id="레이어_1" xmlns="http://www.w3.org/2000/svg" xmlns:xlink="http://www.w3.org/1999/xlink" x="0px"
	 y="0px" width="21.4px" height="21.4px" viewBox="0 0 21.4 21.4" style="enable-background:new 0 0 21.4 21.4;"
	 xml:space="preserve">
<style type="text/css">
	.st0{fill:#FFFFFF;}
	.st1{fill:#3E3A39;}
	.st2{fill:#008340;}
	.st3{fill:#040000;}
	.st4{fill:#0C0D05;}
	.st5{fill:#9FA0A0;}
	.st6{fill:#F7F8F8;}
	.st7{fill:#B61D22;}
	.st8{fill:#FFFFFF;stroke:#B61D22;stroke-width:5;stroke-miterlimit:10;}
	.st9{fill:#24893A;}
	.st10{fill:#FFFFFF;stroke:#24893A;stroke-width:5;stroke-miterlimit:10;}
	.st11{fill:#FFFFFF;stroke:#000000;stroke-width:5;stroke-miterlimit:10;}
	.st12{fill:#277639;}
	.st13{fill:#898989;}
	.st14{fill:#FFFFFF;stroke:#9FA0A0;stroke-width:5;stroke-miterlimit:10;}
	.st15{fill:#AC1F24;}
	.st16{fill:#931E23;}
	.st17{fill:#FFFFFF;stroke:#AC1F24;stroke-width:5;stroke-miterlimit:10;}
	.st18{fill:#93999D;}
	.st19{fill:#7C8285;}
	.st20{fill:#FFFFFF;stroke:#93999D;stroke-width:5;stroke-miterlimit:10;}
	.st21{fill:none;stroke:#000000;stroke-width:2;stroke-miterlimit:10;}
	.st22{fill:#FFFFFF;stroke:#000000;stroke-width:2;stroke-miterlimit:10;}
	.st23{fill:#22AC38;}
	.st24{fill:none;stroke:#FFFFFF;stroke-width:2;stroke-miterlimit:10;}
	.st25{fill:#22AC38;stroke:#FFFFFF;stroke-width:2;stroke-miterlimit:10;}
	.st26{fill:#FFFFFF;stroke:#FFFFFF;stroke-width:2;stroke-miterlimit:10;}
	.st27{fill:#FFFFFF;stroke:#22AC38;stroke-width:2;stroke-miterlimit:10;}
	.st28{stroke:#000000;stroke-width:2;stroke-miterlimit:10;}
	.st29{stroke:#008340;stroke-width:2;stroke-miterlimit:10;}
	.st30{fill:none;stroke:#FFFFFF;stroke-width:15;stroke-miterlimit:10;}
	.st31{fill:none;stroke:#727171;stroke-width:15;stroke-miterlimit:10;}
</style>
<path class="st2" d="M10.7,0.7C4.8,0.7,0,5.4,0,11.3V22h10.7c5.9,0,10.7-4.8,10.7-10.7S16.6,0.7,10.7,0.7z"/>
<g>
	<path class="st0" d="M8.2,7.8V21H5.7V10.8C5.4,11,5,11.3,4.5,11.5c-0.5,0.2-1,0.4-1.6,0.4V9.7c1.3-0.4,2.5-1,3.7-1.9H8.2z"/>
	<path class="st0" d="M12.2,14.7c0-2.3,0.4-4,1.2-5.2c0.8-1.2,2-1.8,3.5-1.8c2.9,0,4.4,2.2,4.4,6.6c0,2.2-0.4,3.9-1.2,5
		s-2,1.8-3.5,1.8C13.7,21.2,12.2,19.1,12.2,14.7z M14.7,14.7c0,3.1,0.7,4.7,2.1,4.7c1.4,0,2-1.6,2-4.8c0-3.2-0.7-4.8-2-4.8
		C15.4,9.7,14.7,11.4,14.7,14.7z"/>
</g>
</svg>
