<?xml version="1.0" encoding="utf-8"?>
<!-- Generator: Adobe Illustrator 17.0.0, SVG Export Plug-In . SVG Version: 6.00 Build 0)  -->
<!DOCTYPE svg PUBLIC "-//W3C//DTD SVG 1.1//EN" "http://www.w3.org/Graphics/SVG/1.1/DTD/svg11.dtd">
<svg version="1.1" id="레이어_1" xmlns="http://www.w3.org/2000/svg" xmlns:xlink="http://www.w3.org/1999/xlink" x="0px"
	 y="0px" width="21.4px" height="21.4px" viewBox="0 0 21.4 21.4" style="enable-background:new 0 0 21.4 21.4;"
	 xml:space="preserve">
<style type="text/css">
	.st0{fill:#FFFFFF;}
	.st1{fill:#3E3A39;}
	.st2{fill:#008340;}
	.st3{fill:#040000;}
	.st4{fill:#0C0D05;}
	.st5{fill:#9FA0A0;}
	.st6{fill:#F7F8F8;}
	.st7{fill:#B61D22;}
	.st8{fill:#FFFFFF;stroke:#B61D22;stroke-width:5;stroke-miterlimit:10;}
	.st9{fill:#24893A;}
	.st10{fill:#FFFFFF;stroke:#24893A;stroke-width:5;stroke-miterlimit:10;}
	.st11{fill:#FFFFFF;stroke:#000000;stroke-width:5;stroke-miterlimit:10;}
	.st12{fill:#277639;}
	.st13{fill:#898989;}
	.st14{fill:#FFFFFF;stroke:#9FA0A0;stroke-width:5;stroke-miterlimit:10;}
	.st15{fill:#AC1F24;}
	.st16{fill:#931E23;}
	.st17{fill:#FFFFFF;stroke:#AC1F24;stroke-width:5;stroke-miterlimit:10;}
	.st18{fill:#93999D;}
	.st19{fill:#7C8285;}
	.st20{fill:#FFFFFF;stroke:#93999D;stroke-width:5;stroke-miterlimit:10;}
	.st21{fill:none;stroke:#000000;stroke-width:2;stroke-miterlimit:10;}
	.st22{fill:#FFFFFF;stroke:#000000;stroke-width:2;stroke-miterlimit:10;}
	.st23{fill:#22AC38;}
	.st24{fill:none;stroke:#FFFFFF;stroke-width:2;stroke-miterlimit:10;}
	.st25{fill:#22AC38;stroke:#FFFFFF;stroke-width:2;stroke-miterlimit:10;}
	.st26{fill:#FFFFFF;stroke:#FFFFFF;stroke-width:2;stroke-miterlimit:10;}
	.st27{fill:#FFFFFF;stroke:#22AC38;stroke-width:2;stroke-miterlimit:10;}
	.st28{stroke:#000000;stroke-width:2;stroke-miterlimit:10;}
	.st29{stroke:#008340;stroke-width:2;stroke-miterlimit:10;}
	.st30{fill:none;stroke:#FFFFFF;stroke-width:15;stroke-miterlimit:10;}
	.st31{fill:none;stroke:#727171;stroke-width:15;stroke-miterlimit:10;}
</style>
<path class="st2" d="M10.7,0.7C4.8,0.7,0,5.4,0,11.3V22h10.7c5.9,0,10.7-4.8,10.7-10.7S16.6,0.7,10.7,0.7z"/>
<g>
	<path class="st0" d="M11.7,18.7c0.7,0.4,1.5,0.7,2.4,0.7c1.1,0,1.9-0.4,2.5-1.2c0.6-0.8,0.8-1.8,0.8-3.2l0,0
		c-0.6,0.9-1.5,1.4-2.7,1.4c-1.1,0-2-0.4-2.7-1.2c-0.7-0.8-1-1.7-1-2.9c0-1.3,0.4-2.4,1.2-3.3c0.8-0.8,1.9-1.3,3.2-1.3
		c1.4,0,2.5,0.5,3.3,1.6c0.8,1.1,1.2,2.6,1.2,4.5c0,2.3-0.5,4.1-1.5,5.4c-1,1.3-2.3,2-4.1,2c-1,0-1.9-0.2-2.6-0.5V18.7z M13.4,12.1
		c0,0.7,0.2,1.3,0.5,1.7c0.4,0.4,0.9,0.6,1.5,0.6c0.6,0,1-0.2,1.4-0.6s0.5-0.9,0.5-1.5c0-0.7-0.2-1.3-0.5-1.9
		c-0.4-0.5-0.8-0.8-1.5-0.8c-0.6,0-1.1,0.2-1.4,0.7S13.4,11.4,13.4,12.1z"/>
</g>
</svg>
